Coordinates
version=1
nRows=15
nColumns=26
inDegrees=yes

Units are S.I. units (second, meters, Newtons, ...)
Angles are in degrees.

endheader
time	pelvis_tilt	pelvis_list	pelvis_rotation	pelvis_tx	pelvis_ty	pelvis_tz	hip_flexion_r	hip_adduction_r	hip_rotation_r	knee_angle_r	knee_angle_r_beta	ankle_angle_r	subtalar_angle_r	mtp_angle_r	hip_flexion_l	hip_adduction_l	hip_rotation_l	knee_angle_l	knee_angle_l_beta	ankle_angle_l	subtalar_angle_l	mtp_angle_l	lumbar_extension	lumbar_bending	lumbar_rotation
      0.26666667	      7.61442507	     -0.40677515	     -1.45471371	      0.44262871	      1.01846865	      0.22819093	      6.73210806	     -6.18518320	     -5.72477887	     60.76036602	     60.76036602	      2.17708144	      0.00000000	      0.00000000	      0.98726217	      1.54125788	    -11.60178165	     13.05954385	     13.05954385	      3.62564480	      0.00000000	      0.00000000	    -18.95834123	     -1.54105541	      2.11102907
      0.27500000	      7.52377608	     -0.57947575	     -1.13011484	      0.45046475	      1.01956787	      0.22805179	      7.67819335	     -6.03993638	     -6.20009414	     60.15932665	     60.15932665	      2.49135024	      0.00000000	      0.00000000	      0.42979259	      1.38866511	    -11.20693399	     12.76732104	     12.76732104	      3.80935468	      0.00000000	      0.00000000	    -18.89237625	     -1.30255108	      2.02529124
      0.28333333	      7.38349146	     -0.75085550	     -0.90521551	      0.45820932	      1.02038078	      0.22811432	      8.68167070	     -5.80199659	     -6.48621613	     59.39616344	     59.39616344	      2.47193773	      0.00000000	      0.00000000	     -0.05242868	      1.22239540	    -10.91968623	     12.52424679	     12.52424679	      4.06720667	      0.00000000	      0.00000000	    -18.78000171	     -1.08399417	      2.01566734
      0.29166667	      7.26578162	     -0.88967154	     -0.68805387	      0.46585141	      1.02110115	      0.22804051	      9.61028826	     -5.58043621	     -6.68513505	     58.49797690	     58.49797690	      2.69331373	      0.00000000	      0.00000000	     -0.46305450	      1.09803088	    -10.67072077	     12.44728831	     12.44728831	      4.38589910	      0.00000000	      0.00000000	    -18.71536946	     -0.87416590	      1.98021225
      0.30000000	      7.19411099	     -0.96419232	     -0.51428033	      0.47354424	      1.02177990	      0.22800203	     10.42900904	     -5.39397631	     -6.83473722	     57.40786376	     57.40786376	      2.84948705	      0.00000000	      0.00000000	     -0.99775737	      1.06864690	    -10.45908765	     12.23235113	     12.23235113	      4.67279996	      0.00000000	      0.00000000	    -18.67355666	     -0.76002261	      2.04121769
      0.30833333	      7.15743006	     -1.02732071	     -0.30192296	      0.48125813	      1.02228801	      0.22782324	     11.19856246	     -5.23884681	     -6.99590968	     56.26218797	     56.26218797	      3.25773379	      0.00000000	      0.00000000	     -1.58949786	      1.03659058	    -10.19040405	     11.99402741	     11.99402741	      5.00217304	      0.00000000	      0.00000000	    -18.67749030	     -0.63127609	      2.02892992
      0.31666667	      7.12270240	     -1.07106305	     -0.05680694	      0.48902097	      1.02268035	      0.22768828	     11.91965610	     -5.10228878	     -7.19656067	     54.98461542	     54.98461542	      3.58925840	      0.00000000	      0.00000000	     -2.16954739	      1.01279810	     -9.91856432	     11.77891932	     11.77891932	      5.37293928	      0.00000000	      0.00000000	    -18.67820326	     -0.52907566	      1.99477244
      0.32500000	      7.09976168	     -1.11599170	      0.22662035	      0.49684774	      1.02294048	      0.22757747	     12.55135373	     -4.93216058	     -7.37020315	     53.53620000	     53.53620000	      3.71470412	      0.00000000	      0.00000000	     -2.72733063	      0.97144846	     -9.68138948	     11.60696862	     11.60696862	      5.67886688	      0.00000000	      0.00000000	    -18.68646890	     -0.42536637	      1.92644967
      0.33333333	      7.05835363	     -1.17278985	      0.51402413	      0.50460591	      1.02300719	      0.22747780	     13.14630206	     -4.71648959	     -7.48456523	     51.94517084	     51.94517084	      3.90330929	      0.00000000	      0.00000000	     -3.24155138	      0.88117293	     -9.39744562	     11.52892595	     11.52892595	      5.99371196	      0.00000000	      0.00000000	    -18.68279526	     -0.30471756	      1.84153117
      0.34166667	      6.87808455	     -1.21406049	      0.86769848	      0.51197171	      1.02260531	      0.22737745	     13.88524142	     -4.48944187	     -7.53356824	     50.27469752	     50.27469752	      3.87503572	      0.00000000	      0.00000000	     -3.47514689	      0.78584016	     -9.00416896	     11.64819502	     11.64819502	      6.54133152	      0.00000000	      0.00000000	    -18.56248965	     -0.20125308	      1.70952998
      0.35000000	      6.79884931	     -1.27811847	      1.08028936	      0.51963156	      1.02233082	      0.22733524	     14.41512639	     -4.21540901	     -7.52995797	     48.39638247	     48.39638247	      3.84492524	      0.00000000	      0.00000000	     -3.92977088	      0.67371966	     -8.75573971	     11.62825071	     11.62825071	      6.90734573	      0.00000000	      0.00000000	    -18.52529952	     -0.08863544	      1.72936130
      0.35833333	      6.65940395	     -1.29767799	      1.30130542	      0.52717039	      1.02182334	      0.22737425	     14.97175997	     -3.98000299	     -7.50446499	     46.41887390	     46.41887390	      3.80787792	      0.00000000	      0.00000000	     -4.28555929	      0.61496018	     -8.53634960	     11.62227260	     11.62227260	      7.32457572	      0.00000000	      0.00000000	    -18.43523877	     -0.03260179	      1.71336594
      0.36666667	      6.47701956	     -1.28335293	      1.55547444	      0.53462363	      1.02111490	      0.22743680	     15.50524980	     -3.78350255	     -7.47982485	     44.30165610	     44.30165610	      3.64328926	      0.00000000	      0.00000000	     -4.52804648	      0.56426763	     -8.25142798	     11.74865373	     11.74865373	      7.81943046	      0.00000000	      0.00000000	    -18.31091624	     -0.00835465	      1.66451301
      0.37500000	      6.28172305	     -1.20453490	      1.78533262	      0.54197112	      1.02033777	      0.22761844	     15.99612278	     -3.63992105	     -7.41709709	     42.06093409	     42.06093409	      3.47756011	      0.00000000	      0.00000000	     -4.71788649	      0.57715372	     -7.96478442	     11.90357610	     11.90357610	      8.29133907	      0.00000000	      0.00000000	    -18.19903509	     -0.08072705	      1.56510289
      0.38333333	      6.02724256	     -1.07161140	      1.99104634	      0.54927619	      1.01934929	      0.22760111	     16.49437793	     -3.56758228	     -7.37442811	     39.67475418	     39.67475418	      3.50298398	      0.00000000	      0.00000000	     -4.81584350	      0.65817678	     -7.68828690	     12.14973943	     12.14973943	      8.81515658	      0.00000000	      0.00000000	    -18.03183792	     -0.19379993	      1.45805627
